<mxfile host="Electron" modified="2024-12-17T16:25:13.095Z" agent="Mozilla/5.0 (X11; Linux x86_64) AppleWebKit/537.36 (KHTML, like Gecko) draw.io/21.6.5 Chrome/114.0.5735.243 Electron/25.3.1 Safari/537.36" etag="6PpAWffYryUmswCdzfun" version="21.6.5" type="device">
  <diagram id="oBw_qqJAZGGyLAkMiL3p" name="第 1 页">
    <mxGraphModel dx="989" dy="606" grid="1" gridSize="10" guides="1" tooltips="1" connect="1" arrows="1" fold="1" page="1" pageScale="1" pageWidth="827" pageHeight="1169" math="0" shadow="0">
      <root>
        <mxCell id="0" />
        <mxCell id="1" parent="0" />
        <mxCell id="HGKUAlMKFO4TREOeEvBw-1" style="edgeStyle=orthogonalEdgeStyle;rounded=0;orthogonalLoop=1;jettySize=auto;html=1;exitX=1;exitY=0.5;exitDx=0;exitDy=0;curved=1;" parent="1" source="kFmA6Fi3ztpmuOoM7vwJ-1" target="kFmA6Fi3ztpmuOoM7vwJ-2" edge="1">
          <mxGeometry relative="1" as="geometry" />
        </mxCell>
        <mxCell id="kFmA6Fi3ztpmuOoM7vwJ-1" value="&lt;font style=&quot;font-size: 10px&quot;&gt;zaddGenericCommand(client *c, int flags)&lt;/font&gt;" style="rounded=1;whiteSpace=wrap;html=1;fillColor=#dae8fc;strokeColor=#6c8ebf;" parent="1" vertex="1">
          <mxGeometry x="40" y="40" width="160" height="40" as="geometry" />
        </mxCell>
        <mxCell id="HGKUAlMKFO4TREOeEvBw-4" value="" style="edgeStyle=orthogonalEdgeStyle;rounded=0;orthogonalLoop=1;jettySize=auto;html=1;fontSize=8;fontColor=#007FFF;curved=1;" parent="1" source="kFmA6Fi3ztpmuOoM7vwJ-2" target="HGKUAlMKFO4TREOeEvBw-3" edge="1">
          <mxGeometry relative="1" as="geometry" />
        </mxCell>
        <mxCell id="kFmA6Fi3ztpmuOoM7vwJ-2" value="&lt;span style=&quot;font-size: 10px&quot;&gt;解析特殊参数 flags&amp;nbsp;&lt;br&gt;低4bit每bit代表一种含义&lt;br&gt;&lt;/span&gt;" style="rounded=1;whiteSpace=wrap;html=1;" parent="1" vertex="1">
          <mxGeometry x="240" y="40" width="160" height="40" as="geometry" />
        </mxCell>
        <mxCell id="HGKUAlMKFO4TREOeEvBw-2" value="&lt;div style=&quot;font-size: 8px&quot;&gt;&lt;font style=&quot;font-size: 8px&quot; color=&quot;#007fff&quot;&gt;#define ZADD_IN_NONE 0&lt;/font&gt;&lt;/div&gt;&lt;div style=&quot;font-size: 8px&quot;&gt;&lt;font style=&quot;font-size: 8px&quot; color=&quot;#007fff&quot;&gt;#define ZADD_IN_INCR (1&amp;lt;&amp;lt;0)&lt;/font&gt;&lt;/div&gt;&lt;div style=&quot;font-size: 8px&quot;&gt;&lt;font style=&quot;font-size: 8px&quot; color=&quot;#007fff&quot;&gt;#define ZADD_IN_NX (1&amp;lt;&amp;lt;1)&amp;nbsp;&amp;nbsp;&lt;/font&gt;&lt;/div&gt;&lt;div style=&quot;font-size: 8px&quot;&gt;&lt;font style=&quot;font-size: 8px&quot; color=&quot;#007fff&quot;&gt;#define ZADD_IN_XX (1&amp;lt;&amp;lt;2)&amp;nbsp;&amp;nbsp;&lt;/font&gt;&lt;/div&gt;&lt;div style=&quot;font-size: 8px&quot;&gt;&lt;font style=&quot;font-size: 8px&quot; color=&quot;#007fff&quot;&gt;#define ZADD_IN_GT (1&amp;lt;&amp;lt;3)&amp;nbsp;&amp;nbsp;&lt;/font&gt;&lt;/div&gt;&lt;div style=&quot;font-size: 8px&quot;&gt;&lt;font style=&quot;font-size: 8px&quot; color=&quot;#007fff&quot;&gt;#define ZADD_IN_LT (1&amp;lt;&amp;lt;4)&amp;nbsp;&amp;nbsp;&lt;/font&gt;&lt;/div&gt;" style="text;html=1;align=left;verticalAlign=middle;resizable=0;points=[];autosize=1;strokeColor=none;fillColor=none;" parent="1" vertex="1">
          <mxGeometry x="400" y="15" width="130" height="90" as="geometry" />
        </mxCell>
        <mxCell id="HGKUAlMKFO4TREOeEvBw-7" style="edgeStyle=orthogonalEdgeStyle;curved=1;rounded=0;orthogonalLoop=1;jettySize=auto;html=1;exitX=1;exitY=0.5;exitDx=0;exitDy=0;entryX=0;entryY=0.5;entryDx=0;entryDy=0;fontSize=8;fontColor=#007FFF;" parent="1" source="HGKUAlMKFO4TREOeEvBw-3" target="HGKUAlMKFO4TREOeEvBw-6" edge="1">
          <mxGeometry relative="1" as="geometry" />
        </mxCell>
        <mxCell id="HGKUAlMKFO4TREOeEvBw-11" value="" style="edgeStyle=orthogonalEdgeStyle;curved=1;rounded=0;orthogonalLoop=1;jettySize=auto;html=1;fontSize=8;fontColor=#007FFF;" parent="1" source="HGKUAlMKFO4TREOeEvBw-3" target="HGKUAlMKFO4TREOeEvBw-10" edge="1">
          <mxGeometry relative="1" as="geometry" />
        </mxCell>
        <mxCell id="HGKUAlMKFO4TREOeEvBw-3" value="&lt;span style=&quot;font-size: 10px&quot;&gt;从传参中读取分数存储到&lt;br&gt;double指针&lt;br&gt;&lt;/span&gt;" style="rounded=1;whiteSpace=wrap;html=1;" parent="1" vertex="1">
          <mxGeometry x="240" y="120" width="160" height="40" as="geometry" />
        </mxCell>
        <mxCell id="HGKUAlMKFO4TREOeEvBw-9" value="" style="edgeStyle=orthogonalEdgeStyle;curved=1;rounded=0;orthogonalLoop=1;jettySize=auto;html=1;fontSize=8;fontColor=#007FFF;" parent="1" source="HGKUAlMKFO4TREOeEvBw-6" target="HGKUAlMKFO4TREOeEvBw-8" edge="1">
          <mxGeometry relative="1" as="geometry" />
        </mxCell>
        <mxCell id="HGKUAlMKFO4TREOeEvBw-6" value="&lt;span style=&quot;font-size: 10px&quot;&gt;scores = zmalloc(sizeof(double)*elements);&lt;/span&gt;" style="rounded=1;whiteSpace=wrap;html=1;" parent="1" vertex="1">
          <mxGeometry x="440" y="120" width="160" height="40" as="geometry" />
        </mxCell>
        <mxCell id="HGKUAlMKFO4TREOeEvBw-8" value="&lt;span style=&quot;font-size: 10px&quot;&gt;for (j = 0; j &amp;lt; elements; j++) :&lt;/span&gt;&lt;br&gt;&lt;span style=&quot;font-size: 10px&quot;&gt;getDoubleFromObjectOrReply(c,c-&amp;gt;argv[scoreidx+j*2],&amp;amp;scores[j],NULL)&lt;/span&gt;" style="rounded=1;whiteSpace=wrap;html=1;" parent="1" vertex="1">
          <mxGeometry x="425" y="180" width="190" height="40" as="geometry" />
        </mxCell>
        <mxCell id="HGKUAlMKFO4TREOeEvBw-16" value="" style="edgeStyle=orthogonalEdgeStyle;curved=1;rounded=0;orthogonalLoop=1;jettySize=auto;html=1;fontSize=8;fontColor=#007FFF;" parent="1" source="HGKUAlMKFO4TREOeEvBw-10" target="HGKUAlMKFO4TREOeEvBw-15" edge="1">
          <mxGeometry relative="1" as="geometry" />
        </mxCell>
        <mxCell id="HGKUAlMKFO4TREOeEvBw-10" value="&lt;span style=&quot;font-size: 10px&quot;&gt;zobj = lookupKeyWrite(c-&amp;gt;db,key);&lt;/span&gt;" style="rounded=1;whiteSpace=wrap;html=1;" parent="1" vertex="1">
          <mxGeometry x="240" y="260" width="160" height="40" as="geometry" />
        </mxCell>
        <mxCell id="HGKUAlMKFO4TREOeEvBw-12" value="后面是老一套流程" style="text;html=1;align=center;verticalAlign=middle;resizable=0;points=[];autosize=1;strokeColor=none;fillColor=none;fontSize=8;fontColor=#007FFF;" parent="1" vertex="1">
          <mxGeometry x="150" y="260" width="80" height="20" as="geometry" />
        </mxCell>
        <mxCell id="HGKUAlMKFO4TREOeEvBw-19" value="Y" style="edgeStyle=orthogonalEdgeStyle;curved=1;rounded=0;orthogonalLoop=1;jettySize=auto;html=1;fontSize=10;fontColor=#007FFF;" parent="1" source="HGKUAlMKFO4TREOeEvBw-15" target="HGKUAlMKFO4TREOeEvBw-18" edge="1">
          <mxGeometry relative="1" as="geometry" />
        </mxCell>
        <mxCell id="HGKUAlMKFO4TREOeEvBw-24" style="edgeStyle=orthogonalEdgeStyle;curved=1;rounded=0;orthogonalLoop=1;jettySize=auto;html=1;exitX=0.5;exitY=1;exitDx=0;exitDy=0;entryX=0.5;entryY=0;entryDx=0;entryDy=0;fontSize=9;fontColor=#007FFF;" parent="1" source="HGKUAlMKFO4TREOeEvBw-15" target="HGKUAlMKFO4TREOeEvBw-23" edge="1">
          <mxGeometry relative="1" as="geometry" />
        </mxCell>
        <mxCell id="HGKUAlMKFO4TREOeEvBw-15" value="&lt;font style=&quot;font-size: 10px&quot;&gt;zobj == NULL&lt;br&gt;key不存在&lt;br&gt;&lt;/font&gt;" style="rhombus;whiteSpace=wrap;html=1;rounded=1;" parent="1" vertex="1">
          <mxGeometry x="280" y="320" width="80" height="80" as="geometry" />
        </mxCell>
        <mxCell id="HGKUAlMKFO4TREOeEvBw-27" style="edgeStyle=orthogonalEdgeStyle;curved=1;rounded=0;orthogonalLoop=1;jettySize=auto;html=1;exitX=0.5;exitY=1;exitDx=0;exitDy=0;entryX=0.5;entryY=0;entryDx=0;entryDy=0;fontSize=9;fontColor=#007FFF;" parent="1" source="HGKUAlMKFO4TREOeEvBw-17" target="HGKUAlMKFO4TREOeEvBw-25" edge="1">
          <mxGeometry relative="1" as="geometry">
            <Array as="points">
              <mxPoint x="720" y="480" />
              <mxPoint x="500" y="480" />
            </Array>
          </mxGeometry>
        </mxCell>
        <mxCell id="HGKUAlMKFO4TREOeEvBw-17" value="&lt;span style=&quot;font-size: 10px&quot;&gt;zobj = createZsetObject()&lt;/span&gt;" style="rounded=1;whiteSpace=wrap;html=1;fillColor=#dae8fc;strokeColor=#6c8ebf;" parent="1" vertex="1">
          <mxGeometry x="640" y="340" width="160" height="40" as="geometry" />
        </mxCell>
        <mxCell id="HGKUAlMKFO4TREOeEvBw-20" value="Y" style="edgeStyle=orthogonalEdgeStyle;curved=1;rounded=0;orthogonalLoop=1;jettySize=auto;html=1;exitX=1;exitY=0.5;exitDx=0;exitDy=0;fontSize=9;fontColor=#007FFF;" parent="1" source="HGKUAlMKFO4TREOeEvBw-18" target="HGKUAlMKFO4TREOeEvBw-17" edge="1">
          <mxGeometry relative="1" as="geometry" />
        </mxCell>
        <mxCell id="HGKUAlMKFO4TREOeEvBw-22" value="&lt;font style=&quot;font-size: 8px&quot;&gt;N&lt;/font&gt;" style="edgeStyle=orthogonalEdgeStyle;curved=1;rounded=0;orthogonalLoop=1;jettySize=auto;html=1;exitX=0.5;exitY=1;exitDx=0;exitDy=0;fontSize=9;fontColor=#007FFF;entryX=0.5;entryY=0;entryDx=0;entryDy=0;" parent="1" source="HGKUAlMKFO4TREOeEvBw-18" target="HGKUAlMKFO4TREOeEvBw-21" edge="1">
          <mxGeometry relative="1" as="geometry">
            <mxPoint x="500" y="430" as="targetPoint" />
          </mxGeometry>
        </mxCell>
        <mxCell id="HGKUAlMKFO4TREOeEvBw-18" value="&lt;div style=&quot;font-size: 9px&quot;&gt;&lt;font style=&quot;font-size: 9px&quot;&gt;server.&lt;b&gt;zset_max_ziplist_entries&lt;/b&gt; == 0 ||&lt;/font&gt;&lt;/div&gt;&lt;div style=&quot;font-size: 9px&quot;&gt;&lt;font style=&quot;font-size: 9px&quot;&gt;server.&lt;b&gt;zset_max_ziplist_value&lt;/b&gt; &amp;lt; &lt;br&gt;sdslen(c-&amp;gt;argv[scoreidx+1]-&amp;gt;ptr)&lt;/font&gt;&lt;/div&gt;" style="rhombus;whiteSpace=wrap;html=1;rounded=1;" parent="1" vertex="1">
          <mxGeometry x="400" y="320" width="200" height="80" as="geometry" />
        </mxCell>
        <mxCell id="HGKUAlMKFO4TREOeEvBw-26" value="" style="edgeStyle=orthogonalEdgeStyle;curved=1;rounded=0;orthogonalLoop=1;jettySize=auto;html=1;fontSize=9;fontColor=#007FFF;" parent="1" source="HGKUAlMKFO4TREOeEvBw-21" target="HGKUAlMKFO4TREOeEvBw-25" edge="1">
          <mxGeometry relative="1" as="geometry" />
        </mxCell>
        <mxCell id="HGKUAlMKFO4TREOeEvBw-21" value="&lt;span style=&quot;font-size: 10px&quot;&gt;zobj = createZsetZiplistObject()&lt;/span&gt;" style="rounded=1;whiteSpace=wrap;html=1;fillColor=#dae8fc;strokeColor=#6c8ebf;" parent="1" vertex="1">
          <mxGeometry x="420" y="420" width="160" height="40" as="geometry" />
        </mxCell>
        <mxCell id="HGKUAlMKFO4TREOeEvBw-38" value="" style="edgeStyle=orthogonalEdgeStyle;curved=1;rounded=0;orthogonalLoop=1;jettySize=auto;html=1;fontSize=8;fontColor=#007FFF;" parent="1" source="HGKUAlMKFO4TREOeEvBw-23" target="HGKUAlMKFO4TREOeEvBw-37" edge="1">
          <mxGeometry relative="1" as="geometry" />
        </mxCell>
        <mxCell id="HGKUAlMKFO4TREOeEvBw-23" value="&lt;span style=&quot;font-size: 10px&quot;&gt;for (j = 0; j &amp;lt; elements; j++) :&lt;/span&gt;&lt;br&gt;&lt;span style=&quot;font-size: 10px&quot;&gt;retval = &lt;b&gt;zsetAdd&lt;/b&gt;(zobj, score, ele, flags, &amp;amp;retflags, &amp;amp;newscore)&lt;/span&gt;" style="rounded=1;whiteSpace=wrap;html=1;fillColor=#dae8fc;strokeColor=#6c8ebf;" parent="1" vertex="1">
          <mxGeometry x="240" y="580" width="160" height="40" as="geometry" />
        </mxCell>
        <mxCell id="HGKUAlMKFO4TREOeEvBw-34" style="edgeStyle=orthogonalEdgeStyle;curved=1;rounded=0;orthogonalLoop=1;jettySize=auto;html=1;exitX=0.5;exitY=1;exitDx=0;exitDy=0;entryX=0.5;entryY=0;entryDx=0;entryDy=0;fontSize=8;fontColor=#007FFF;" parent="1" source="HGKUAlMKFO4TREOeEvBw-25" target="HGKUAlMKFO4TREOeEvBw-23" edge="1">
          <mxGeometry relative="1" as="geometry" />
        </mxCell>
        <mxCell id="HGKUAlMKFO4TREOeEvBw-25" value="&lt;span style=&quot;font-size: 10px&quot;&gt;dbAdd(c-&amp;gt;db,key,zobj)&lt;/span&gt;" style="rounded=1;whiteSpace=wrap;html=1;" parent="1" vertex="1">
          <mxGeometry x="420" y="500" width="160" height="40" as="geometry" />
        </mxCell>
        <mxCell id="HGKUAlMKFO4TREOeEvBw-36" value="&lt;div&gt;配置参数：&lt;/div&gt;&lt;div&gt;zset_max_ziplist_entries = 0 或&lt;/div&gt;&lt;div&gt;zset_max_ziplist_value &amp;lt; value值的长度&lt;br&gt;采用 zset 数据结构&lt;/div&gt;" style="text;html=1;strokeColor=none;fillColor=none;align=left;verticalAlign=middle;whiteSpace=wrap;rounded=0;fontSize=8;fontColor=#007FFF;" parent="1" vertex="1">
          <mxGeometry x="600" y="280" width="180" height="60" as="geometry" />
        </mxCell>
        <mxCell id="HGKUAlMKFO4TREOeEvBw-40" value="ZIPLIST" style="edgeStyle=orthogonalEdgeStyle;curved=1;rounded=0;orthogonalLoop=1;jettySize=auto;html=1;exitX=1;exitY=0.5;exitDx=0;exitDy=0;fontSize=10;fontColor=#007FFF;" parent="1" source="HGKUAlMKFO4TREOeEvBw-37" target="HGKUAlMKFO4TREOeEvBw-39" edge="1">
          <mxGeometry relative="1" as="geometry" />
        </mxCell>
        <mxCell id="HGKUAlMKFO4TREOeEvBw-42" value="SKIPLIST" style="edgeStyle=orthogonalEdgeStyle;curved=1;rounded=0;orthogonalLoop=1;jettySize=auto;html=1;exitX=1;exitY=0.5;exitDx=0;exitDy=0;entryX=0;entryY=0.5;entryDx=0;entryDy=0;fontSize=10;fontColor=#007FFF;" parent="1" source="HGKUAlMKFO4TREOeEvBw-37" target="HGKUAlMKFO4TREOeEvBw-41" edge="1">
          <mxGeometry relative="1" as="geometry" />
        </mxCell>
        <mxCell id="HGKUAlMKFO4TREOeEvBw-37" value="&lt;font style=&quot;font-size: 10px&quot;&gt;zobj-&amp;gt;encoding&lt;/font&gt;" style="rhombus;whiteSpace=wrap;html=1;rounded=1;" parent="1" vertex="1">
          <mxGeometry x="460" y="560" width="80" height="80" as="geometry" />
        </mxCell>
        <mxCell id="HGKUAlMKFO4TREOeEvBw-44" value="转换" style="edgeStyle=orthogonalEdgeStyle;curved=1;rounded=0;orthogonalLoop=1;jettySize=auto;html=1;fontSize=10;fontColor=#007FFF;" parent="1" source="HGKUAlMKFO4TREOeEvBw-39" target="HGKUAlMKFO4TREOeEvBw-43" edge="1">
          <mxGeometry relative="1" as="geometry" />
        </mxCell>
        <mxCell id="HGKUAlMKFO4TREOeEvBw-39" value="更新/插值/&lt;br&gt;数据结构转换" style="rounded=1;whiteSpace=wrap;html=1;" parent="1" vertex="1">
          <mxGeometry x="620" y="580" width="120" height="40" as="geometry" />
        </mxCell>
        <mxCell id="HGKUAlMKFO4TREOeEvBw-41" value="更新/插值/&lt;br&gt;数据结构转换" style="rounded=1;whiteSpace=wrap;html=1;" parent="1" vertex="1">
          <mxGeometry x="620" y="660" width="120" height="40" as="geometry" />
        </mxCell>
        <mxCell id="HGKUAlMKFO4TREOeEvBw-46" value="" style="edgeStyle=orthogonalEdgeStyle;curved=1;rounded=0;orthogonalLoop=1;jettySize=auto;html=1;fontSize=10;fontColor=#007FFF;" parent="1" source="HGKUAlMKFO4TREOeEvBw-43" target="HGKUAlMKFO4TREOeEvBw-45" edge="1">
          <mxGeometry relative="1" as="geometry" />
        </mxCell>
        <mxCell id="HGKUAlMKFO4TREOeEvBw-43" value="&lt;font style=&quot;font-size: 10px&quot;&gt;zsetConvert(zobj,&lt;br&gt;OBJ_ENCODING_SKIPLIST)&lt;/font&gt;" style="rounded=1;whiteSpace=wrap;html=1;" parent="1" vertex="1">
          <mxGeometry x="780" y="580" width="160" height="40" as="geometry" />
        </mxCell>
        <mxCell id="HGKUAlMKFO4TREOeEvBw-45" value="&lt;font style=&quot;font-size: 10px&quot;&gt;zsetConvert(zobj,&lt;br&gt;OBJ_ENCODING_SKIPLIST)&lt;/font&gt;" style="rounded=1;whiteSpace=wrap;html=1;" parent="1" vertex="1">
          <mxGeometry x="980" y="580" width="160" height="40" as="geometry" />
        </mxCell>
      </root>
    </mxGraphModel>
  </diagram>
</mxfile>
